<?xml version="1.0" encoding="iso-8859-1"?>
<!-- Generator: Adobe Illustrator 18.0.0, SVG Export Plug-In . SVG Version: 6.00 Build 0)  -->
<!DOCTYPE svg PUBLIC "-//W3C//DTD SVG 1.1//EN" "http://www.w3.org/Graphics/SVG/1.1/DTD/svg11.dtd">
<svg xmlns="http://www.w3.org/2000/svg" xmlns:xlink="http://www.w3.org/1999/xlink" version="1.1" id="Capa_1" x="0px" y="0px" viewBox="0 0 219.152 219.152" style="enable-background:new 0 0 219.152 219.152;" xml:space="preserve" width="512px" height="512px">
<g>
	<path d="M211.652,0H7.501c-4.142,0-7.5,3.358-7.5,7.5v204.152c0,4.143,3.358,7.5,7.5,7.5h204.151c4.142,0,7.5-3.357,7.5-7.5V7.5   C219.152,3.358,215.794,0,211.652,0z M204.152,204.152H15.001V15h189.151V204.152z" fill="#FFFFFF"/>
	<path d="M58.539,117.076h102.075c4.142,0,7.5-3.357,7.5-7.5s-3.358-7.5-7.5-7.5H58.539c-4.142,0-7.5,3.357-7.5,7.5   S54.397,117.076,58.539,117.076z" fill="#FFFFFF"/>
</g>
<g>
</g>
<g>
</g>
<g>
</g>
<g>
</g>
<g>
</g>
<g>
</g>
<g>
</g>
<g>
</g>
<g>
</g>
<g>
</g>
<g>
</g>
<g>
</g>
<g>
</g>
<g>
</g>
<g>
</g>
</svg>
